<svg width="432" height="432" fill="none" xmlns="http://www.w3.org/2000/svg"><path d="M220.072 432h-6.583l44.765-121.478h61.808a30.486 30.486 0 0 0 15.943-5.341 29.715 29.715 0 0 0 10.536-12.916l49.08-131.613c7.973-21.564-4.608-39.174-27.941-39.174h-86.092l-71.975 194.795-40.742 109.833c-47.382-11.117-89.668-37.377-120.224-74.66C18.092 314.162.997 267.966.042 220.104c-.954-47.862 14.288-94.681 43.334-133.112 29.046-38.43 70.253-66.297 117.156-79.229l-42.205 113.715-70 189.044h46.594l59.321-160.652h35.036l-59.321 160.652h46.594l55.517-149.87c7.973-21.564-4.608-39.174-27.941-39.174h-39.133L209.978 0h10.094c56.908 2.04 110.792 25.691 150.317 65.976C409.914 106.26 432 160.04 432 216c0 55.96-22.086 109.739-61.611 150.024S276.98 429.959 220.072 432zm132.833-282.202h-35.037L268.86 281.986h34.964l49.081-132.188z" fill="#0096D6"/></svg>